<mxfile host="Electron" modified="2023-08-20T14:49:30.009Z" agent="Mozilla/5.0 (Windows NT 10.0; Win64; x64) AppleWebKit/537.36 (KHTML, like Gecko) draw.io/21.3.7 Chrome/112.0.5615.204 Electron/24.5.0 Safari/537.36" etag="ugNQaE2t0fO1PsIJUSl9" version="21.3.7" type="device">
  <diagram name="ページ1" id="qV2yz1yegHr4Tefr0K1O">
    <mxGraphModel dx="2901" dy="2366" grid="1" gridSize="10" guides="1" tooltips="1" connect="1" arrows="1" fold="1" page="1" pageScale="1" pageWidth="827" pageHeight="1169" math="0" shadow="0">
      <root>
        <mxCell id="0" />
        <mxCell id="1" parent="0" />
        <mxCell id="7jDUgzo4OTwtzhQPI63o-17" style="edgeStyle=orthogonalEdgeStyle;rounded=0;orthogonalLoop=1;jettySize=auto;html=1;entryX=0;entryY=0.5;entryDx=0;entryDy=0;" edge="1" parent="1" source="7jDUgzo4OTwtzhQPI63o-1" target="7jDUgzo4OTwtzhQPI63o-12">
          <mxGeometry relative="1" as="geometry" />
        </mxCell>
        <mxCell id="7jDUgzo4OTwtzhQPI63o-1" value="AWS Lambda&lt;br&gt;omikuji" style="sketch=0;points=[[0,0,0],[0.25,0,0],[0.5,0,0],[0.75,0,0],[1,0,0],[0,1,0],[0.25,1,0],[0.5,1,0],[0.75,1,0],[1,1,0],[0,0.25,0],[0,0.5,0],[0,0.75,0],[1,0.25,0],[1,0.5,0],[1,0.75,0]];outlineConnect=0;fontColor=#232F3E;gradientColor=#F78E04;gradientDirection=north;fillColor=#D05C17;strokeColor=#ffffff;dashed=0;verticalLabelPosition=bottom;verticalAlign=top;align=center;html=1;fontSize=12;fontStyle=0;aspect=fixed;shape=mxgraph.aws4.resourceIcon;resIcon=mxgraph.aws4.lambda;" vertex="1" parent="1">
          <mxGeometry x="930" y="840" width="78" height="78" as="geometry" />
        </mxCell>
        <mxCell id="7jDUgzo4OTwtzhQPI63o-14" style="edgeStyle=orthogonalEdgeStyle;rounded=0;orthogonalLoop=1;jettySize=auto;html=1;entryX=0;entryY=0.5;entryDx=0;entryDy=0;" edge="1" parent="1" source="7jDUgzo4OTwtzhQPI63o-2" target="7jDUgzo4OTwtzhQPI63o-12">
          <mxGeometry relative="1" as="geometry" />
        </mxCell>
        <mxCell id="7jDUgzo4OTwtzhQPI63o-2" value="AWS Lambda&lt;br&gt;list_category" style="sketch=0;points=[[0,0,0],[0.25,0,0],[0.5,0,0],[0.75,0,0],[1,0,0],[0,1,0],[0.25,1,0],[0.5,1,0],[0.75,1,0],[1,1,0],[0,0.25,0],[0,0.5,0],[0,0.75,0],[1,0.25,0],[1,0.5,0],[1,0.75,0]];outlineConnect=0;fontColor=#232F3E;gradientColor=#F78E04;gradientDirection=north;fillColor=#D05C17;strokeColor=#ffffff;dashed=0;verticalLabelPosition=bottom;verticalAlign=top;align=center;html=1;fontSize=12;fontStyle=0;aspect=fixed;shape=mxgraph.aws4.resourceIcon;resIcon=mxgraph.aws4.lambda;" vertex="1" parent="1">
          <mxGeometry x="930" y="560" width="78" height="78" as="geometry" />
        </mxCell>
        <mxCell id="7jDUgzo4OTwtzhQPI63o-13" style="edgeStyle=orthogonalEdgeStyle;rounded=0;orthogonalLoop=1;jettySize=auto;html=1;entryX=0;entryY=0.5;entryDx=0;entryDy=0;" edge="1" parent="1" source="7jDUgzo4OTwtzhQPI63o-3" target="7jDUgzo4OTwtzhQPI63o-12">
          <mxGeometry relative="1" as="geometry" />
        </mxCell>
        <mxCell id="7jDUgzo4OTwtzhQPI63o-3" value="AWS Lambda&lt;br&gt;create_category" style="sketch=0;points=[[0,0,0],[0.25,0,0],[0.5,0,0],[0.75,0,0],[1,0,0],[0,1,0],[0.25,1,0],[0.5,1,0],[0.75,1,0],[1,1,0],[0,0.25,0],[0,0.5,0],[0,0.75,0],[1,0.25,0],[1,0.5,0],[1,0.75,0]];outlineConnect=0;fontColor=#232F3E;gradientColor=#F78E04;gradientDirection=north;fillColor=#D05C17;strokeColor=#ffffff;dashed=0;verticalLabelPosition=bottom;verticalAlign=top;align=center;html=1;fontSize=12;fontStyle=0;aspect=fixed;shape=mxgraph.aws4.resourceIcon;resIcon=mxgraph.aws4.lambda;" vertex="1" parent="1">
          <mxGeometry x="930" y="420" width="78" height="78" as="geometry" />
        </mxCell>
        <mxCell id="7jDUgzo4OTwtzhQPI63o-15" style="edgeStyle=orthogonalEdgeStyle;rounded=0;orthogonalLoop=1;jettySize=auto;html=1;entryX=0;entryY=0.5;entryDx=0;entryDy=0;" edge="1" parent="1" source="7jDUgzo4OTwtzhQPI63o-4" target="7jDUgzo4OTwtzhQPI63o-12">
          <mxGeometry relative="1" as="geometry" />
        </mxCell>
        <mxCell id="7jDUgzo4OTwtzhQPI63o-4" value="AWS Lambda&lt;br&gt;delete_category" style="sketch=0;points=[[0,0,0],[0.25,0,0],[0.5,0,0],[0.75,0,0],[1,0,0],[0,1,0],[0.25,1,0],[0.5,1,0],[0.75,1,0],[1,1,0],[0,0.25,0],[0,0.5,0],[0,0.75,0],[1,0.25,0],[1,0.5,0],[1,0.75,0]];outlineConnect=0;fontColor=#232F3E;gradientColor=#F78E04;gradientDirection=north;fillColor=#D05C17;strokeColor=#ffffff;dashed=0;verticalLabelPosition=bottom;verticalAlign=top;align=center;html=1;fontSize=12;fontStyle=0;aspect=fixed;shape=mxgraph.aws4.resourceIcon;resIcon=mxgraph.aws4.lambda;" vertex="1" parent="1">
          <mxGeometry x="930" y="700" width="78" height="78" as="geometry" />
        </mxCell>
        <mxCell id="7jDUgzo4OTwtzhQPI63o-5" value="Amazon DynamoDB&lt;br&gt;category" style="sketch=0;points=[[0,0,0],[0.25,0,0],[0.5,0,0],[0.75,0,0],[1,0,0],[0,1,0],[0.25,1,0],[0.5,1,0],[0.75,1,0],[1,1,0],[0,0.25,0],[0,0.5,0],[0,0.75,0],[1,0.25,0],[1,0.5,0],[1,0.75,0]];outlineConnect=0;fontColor=#232F3E;gradientColor=#4D72F3;gradientDirection=north;fillColor=#3334B9;strokeColor=#ffffff;dashed=0;verticalLabelPosition=bottom;verticalAlign=top;align=center;html=1;fontSize=12;fontStyle=0;aspect=fixed;shape=mxgraph.aws4.resourceIcon;resIcon=mxgraph.aws4.dynamodb;" vertex="1" parent="1">
          <mxGeometry x="1350" y="560" width="78" height="78" as="geometry" />
        </mxCell>
        <mxCell id="7jDUgzo4OTwtzhQPI63o-6" value="Amazon DynamoDB&lt;br&gt;item" style="sketch=0;points=[[0,0,0],[0.25,0,0],[0.5,0,0],[0.75,0,0],[1,0,0],[0,1,0],[0.25,1,0],[0.5,1,0],[0.75,1,0],[1,1,0],[0,0.25,0],[0,0.5,0],[0,0.75,0],[1,0.25,0],[1,0.5,0],[1,0.75,0]];outlineConnect=0;fontColor=#232F3E;gradientColor=#4D72F3;gradientDirection=north;fillColor=#3334B9;strokeColor=#ffffff;dashed=0;verticalLabelPosition=bottom;verticalAlign=top;align=center;html=1;fontSize=12;fontStyle=0;aspect=fixed;shape=mxgraph.aws4.resourceIcon;resIcon=mxgraph.aws4.dynamodb;" vertex="1" parent="1">
          <mxGeometry x="1350" y="700" width="78" height="78" as="geometry" />
        </mxCell>
        <mxCell id="7jDUgzo4OTwtzhQPI63o-12" value="Database" style="fillColor=none;strokeColor=#5A6C86;dashed=1;verticalAlign=top;fontStyle=0;fontColor=#5A6C86;whiteSpace=wrap;html=1;" vertex="1" parent="1">
          <mxGeometry x="1280" y="510" width="220" height="330" as="geometry" />
        </mxCell>
        <mxCell id="7jDUgzo4OTwtzhQPI63o-19" style="edgeStyle=orthogonalEdgeStyle;rounded=0;orthogonalLoop=1;jettySize=auto;html=1;entryX=0;entryY=0.5;entryDx=0;entryDy=0;entryPerimeter=0;" edge="1" parent="1" source="7jDUgzo4OTwtzhQPI63o-18" target="7jDUgzo4OTwtzhQPI63o-3">
          <mxGeometry relative="1" as="geometry">
            <Array as="points">
              <mxPoint x="650" y="677" />
              <mxPoint x="650" y="459" />
            </Array>
          </mxGeometry>
        </mxCell>
        <mxCell id="7jDUgzo4OTwtzhQPI63o-20" style="edgeStyle=orthogonalEdgeStyle;rounded=0;orthogonalLoop=1;jettySize=auto;html=1;" edge="1" parent="1" source="7jDUgzo4OTwtzhQPI63o-18" target="7jDUgzo4OTwtzhQPI63o-2">
          <mxGeometry relative="1" as="geometry">
            <Array as="points">
              <mxPoint x="650" y="677" />
              <mxPoint x="650" y="599" />
            </Array>
          </mxGeometry>
        </mxCell>
        <mxCell id="7jDUgzo4OTwtzhQPI63o-21" style="edgeStyle=orthogonalEdgeStyle;rounded=0;orthogonalLoop=1;jettySize=auto;html=1;" edge="1" parent="1" source="7jDUgzo4OTwtzhQPI63o-18" target="7jDUgzo4OTwtzhQPI63o-4">
          <mxGeometry relative="1" as="geometry">
            <Array as="points">
              <mxPoint x="650" y="677" />
              <mxPoint x="650" y="739" />
            </Array>
          </mxGeometry>
        </mxCell>
        <mxCell id="7jDUgzo4OTwtzhQPI63o-22" style="edgeStyle=orthogonalEdgeStyle;rounded=0;orthogonalLoop=1;jettySize=auto;html=1;entryX=0;entryY=0.5;entryDx=0;entryDy=0;entryPerimeter=0;" edge="1" parent="1" source="7jDUgzo4OTwtzhQPI63o-18" target="7jDUgzo4OTwtzhQPI63o-1">
          <mxGeometry relative="1" as="geometry">
            <Array as="points">
              <mxPoint x="650" y="677" />
              <mxPoint x="650" y="879" />
            </Array>
          </mxGeometry>
        </mxCell>
        <mxCell id="7jDUgzo4OTwtzhQPI63o-18" value="Amazon API Gateway" style="sketch=0;points=[[0,0,0],[0.25,0,0],[0.5,0,0],[0.75,0,0],[1,0,0],[0,1,0],[0.25,1,0],[0.5,1,0],[0.75,1,0],[1,1,0],[0,0.25,0],[0,0.5,0],[0,0.75,0],[1,0.25,0],[1,0.5,0],[1,0.75,0]];outlineConnect=0;fontColor=#232F3E;gradientColor=#FF4F8B;gradientDirection=north;fillColor=#BC1356;strokeColor=#ffffff;dashed=0;verticalLabelPosition=bottom;verticalAlign=top;align=center;html=1;fontSize=12;fontStyle=0;aspect=fixed;shape=mxgraph.aws4.resourceIcon;resIcon=mxgraph.aws4.api_gateway;" vertex="1" parent="1">
          <mxGeometry x="470" y="638" width="78" height="78" as="geometry" />
        </mxCell>
        <mxCell id="7jDUgzo4OTwtzhQPI63o-23" value="POST /category" style="text;html=1;align=left;verticalAlign=middle;resizable=0;points=[];autosize=1;strokeColor=none;fillColor=none;" vertex="1" parent="1">
          <mxGeometry x="730" y="430" width="110" height="30" as="geometry" />
        </mxCell>
        <mxCell id="7jDUgzo4OTwtzhQPI63o-24" value="GET /category" style="text;html=1;align=left;verticalAlign=middle;resizable=0;points=[];autosize=1;strokeColor=none;fillColor=none;" vertex="1" parent="1">
          <mxGeometry x="730" y="570" width="100" height="30" as="geometry" />
        </mxCell>
        <mxCell id="7jDUgzo4OTwtzhQPI63o-25" value="DELETE /category" style="text;html=1;align=left;verticalAlign=middle;resizable=0;points=[];autosize=1;strokeColor=none;fillColor=none;" vertex="1" parent="1">
          <mxGeometry x="730" y="710" width="120" height="30" as="geometry" />
        </mxCell>
        <mxCell id="7jDUgzo4OTwtzhQPI63o-26" value="POST /omikuji" style="text;html=1;align=left;verticalAlign=middle;resizable=0;points=[];autosize=1;strokeColor=none;fillColor=none;" vertex="1" parent="1">
          <mxGeometry x="730" y="850" width="100" height="30" as="geometry" />
        </mxCell>
        <mxCell id="7jDUgzo4OTwtzhQPI63o-29" style="edgeStyle=orthogonalEdgeStyle;rounded=0;orthogonalLoop=1;jettySize=auto;html=1;" edge="1" parent="1" source="7jDUgzo4OTwtzhQPI63o-27" target="7jDUgzo4OTwtzhQPI63o-28">
          <mxGeometry relative="1" as="geometry" />
        </mxCell>
        <mxCell id="7jDUgzo4OTwtzhQPI63o-27" value="Amazon CloudFront" style="sketch=0;points=[[0,0,0],[0.25,0,0],[0.5,0,0],[0.75,0,0],[1,0,0],[0,1,0],[0.25,1,0],[0.5,1,0],[0.75,1,0],[1,1,0],[0,0.25,0],[0,0.5,0],[0,0.75,0],[1,0.25,0],[1,0.5,0],[1,0.75,0]];outlineConnect=0;fontColor=#232F3E;gradientColor=#945DF2;gradientDirection=north;fillColor=#5A30B5;strokeColor=#ffffff;dashed=0;verticalLabelPosition=bottom;verticalAlign=top;align=center;html=1;fontSize=12;fontStyle=0;aspect=fixed;shape=mxgraph.aws4.resourceIcon;resIcon=mxgraph.aws4.cloudfront;" vertex="1" parent="1">
          <mxGeometry x="470" y="200" width="78" height="78" as="geometry" />
        </mxCell>
        <mxCell id="7jDUgzo4OTwtzhQPI63o-28" value="Amazon S3" style="sketch=0;points=[[0,0,0],[0.25,0,0],[0.5,0,0],[0.75,0,0],[1,0,0],[0,1,0],[0.25,1,0],[0.5,1,0],[0.75,1,0],[1,1,0],[0,0.25,0],[0,0.5,0],[0,0.75,0],[1,0.25,0],[1,0.5,0],[1,0.75,0]];outlineConnect=0;fontColor=#232F3E;gradientColor=#60A337;gradientDirection=north;fillColor=#277116;strokeColor=#ffffff;dashed=0;verticalLabelPosition=bottom;verticalAlign=top;align=center;html=1;fontSize=12;fontStyle=0;aspect=fixed;shape=mxgraph.aws4.resourceIcon;resIcon=mxgraph.aws4.s3;" vertex="1" parent="1">
          <mxGeometry x="730" y="200" width="78" height="78" as="geometry" />
        </mxCell>
        <mxCell id="7jDUgzo4OTwtzhQPI63o-30" value="AWS WAF" style="sketch=0;points=[[0,0,0],[0.25,0,0],[0.5,0,0],[0.75,0,0],[1,0,0],[0,1,0],[0.25,1,0],[0.5,1,0],[0.75,1,0],[1,1,0],[0,0.25,0],[0,0.5,0],[0,0.75,0],[1,0.25,0],[1,0.5,0],[1,0.75,0]];outlineConnect=0;fontColor=#232F3E;gradientColor=#F54749;gradientDirection=north;fillColor=#C7131F;strokeColor=#ffffff;dashed=0;verticalLabelPosition=bottom;verticalAlign=top;align=center;html=1;fontSize=12;fontStyle=0;aspect=fixed;shape=mxgraph.aws4.resourceIcon;resIcon=mxgraph.aws4.waf;" vertex="1" parent="1">
          <mxGeometry x="470" y="-110" width="78" height="78" as="geometry" />
        </mxCell>
        <mxCell id="7jDUgzo4OTwtzhQPI63o-36" style="edgeStyle=orthogonalEdgeStyle;rounded=0;orthogonalLoop=1;jettySize=auto;html=1;entryX=0;entryY=0.5;entryDx=0;entryDy=0;entryPerimeter=0;" edge="1" parent="1" source="7jDUgzo4OTwtzhQPI63o-35" target="7jDUgzo4OTwtzhQPI63o-27">
          <mxGeometry relative="1" as="geometry" />
        </mxCell>
        <mxCell id="7jDUgzo4OTwtzhQPI63o-37" style="edgeStyle=orthogonalEdgeStyle;rounded=0;orthogonalLoop=1;jettySize=auto;html=1;entryX=0;entryY=0.5;entryDx=0;entryDy=0;entryPerimeter=0;" edge="1" parent="1" source="7jDUgzo4OTwtzhQPI63o-35" target="7jDUgzo4OTwtzhQPI63o-18">
          <mxGeometry relative="1" as="geometry" />
        </mxCell>
        <mxCell id="7jDUgzo4OTwtzhQPI63o-35" value="users" style="sketch=0;outlineConnect=0;gradientColor=none;fontColor=#545B64;strokeColor=none;fillColor=#879196;dashed=0;verticalLabelPosition=bottom;verticalAlign=top;align=center;html=1;fontSize=12;fontStyle=0;aspect=fixed;shape=mxgraph.aws4.illustration_users;pointerEvents=1" vertex="1" parent="1">
          <mxGeometry x="-20" y="430" width="100" height="100" as="geometry" />
        </mxCell>
        <mxCell id="7jDUgzo4OTwtzhQPI63o-40" style="edgeStyle=orthogonalEdgeStyle;rounded=0;orthogonalLoop=1;jettySize=auto;html=1;" edge="1" parent="1" source="7jDUgzo4OTwtzhQPI63o-38" target="7jDUgzo4OTwtzhQPI63o-39">
          <mxGeometry relative="1" as="geometry" />
        </mxCell>
        <mxCell id="7jDUgzo4OTwtzhQPI63o-38" value="AWS Lambda" style="fillColor=none;strokeColor=#5A6C86;dashed=1;verticalAlign=top;fontStyle=0;fontColor=#5A6C86;whiteSpace=wrap;html=1;" vertex="1" parent="1">
          <mxGeometry x="880" y="360" width="180" height="620" as="geometry" />
        </mxCell>
        <mxCell id="7jDUgzo4OTwtzhQPI63o-42" style="edgeStyle=orthogonalEdgeStyle;rounded=0;orthogonalLoop=1;jettySize=auto;html=1;" edge="1" parent="1" source="7jDUgzo4OTwtzhQPI63o-39" target="7jDUgzo4OTwtzhQPI63o-44">
          <mxGeometry relative="1" as="geometry">
            <mxPoint x="1170" y="239" as="targetPoint" />
          </mxGeometry>
        </mxCell>
        <mxCell id="7jDUgzo4OTwtzhQPI63o-39" value="Amazon CloudWatch Logs" style="sketch=0;outlineConnect=0;fontColor=#232F3E;gradientColor=none;fillColor=#B0084D;strokeColor=none;dashed=0;verticalLabelPosition=bottom;verticalAlign=top;align=center;html=1;fontSize=12;fontStyle=0;aspect=fixed;pointerEvents=1;shape=mxgraph.aws4.logs;" vertex="1" parent="1">
          <mxGeometry x="931" y="210" width="78" height="58" as="geometry" />
        </mxCell>
        <mxCell id="7jDUgzo4OTwtzhQPI63o-43" value="AWS CDK" style="sketch=0;points=[[0,0,0],[0.25,0,0],[0.5,0,0],[0.75,0,0],[1,0,0],[0,1,0],[0.25,1,0],[0.5,1,0],[0.75,1,0],[1,1,0],[0,0.25,0],[0,0.5,0],[0,0.75,0],[1,0.25,0],[1,0.5,0],[1,0.75,0]];outlineConnect=0;fontColor=#232F3E;gradientColor=#4D72F3;gradientDirection=north;fillColor=#3334B9;strokeColor=#ffffff;dashed=0;verticalLabelPosition=bottom;verticalAlign=top;align=center;html=1;fontSize=12;fontStyle=0;aspect=fixed;shape=mxgraph.aws4.resourceIcon;resIcon=mxgraph.aws4.cloud_development_kit;" vertex="1" parent="1">
          <mxGeometry x="210" y="100" width="78" height="78" as="geometry" />
        </mxCell>
        <mxCell id="7jDUgzo4OTwtzhQPI63o-50" style="edgeStyle=orthogonalEdgeStyle;rounded=0;orthogonalLoop=1;jettySize=auto;html=1;" edge="1" parent="1" source="7jDUgzo4OTwtzhQPI63o-44" target="7jDUgzo4OTwtzhQPI63o-49">
          <mxGeometry relative="1" as="geometry" />
        </mxCell>
        <mxCell id="7jDUgzo4OTwtzhQPI63o-44" value="Amazon CloudWatch Alarm" style="sketch=0;outlineConnect=0;fontColor=#232F3E;gradientColor=none;fillColor=#B0084D;strokeColor=none;dashed=0;verticalLabelPosition=bottom;verticalAlign=top;align=center;html=1;fontSize=12;fontStyle=0;aspect=fixed;pointerEvents=1;shape=mxgraph.aws4.alarm;" vertex="1" parent="1">
          <mxGeometry x="1170" y="200" width="78" height="78" as="geometry" />
        </mxCell>
        <mxCell id="7jDUgzo4OTwtzhQPI63o-48" style="edgeStyle=orthogonalEdgeStyle;rounded=0;orthogonalLoop=1;jettySize=auto;html=1;" edge="1" parent="1" source="7jDUgzo4OTwtzhQPI63o-47" target="7jDUgzo4OTwtzhQPI63o-30">
          <mxGeometry relative="1" as="geometry" />
        </mxCell>
        <mxCell id="7jDUgzo4OTwtzhQPI63o-47" value="" style="fillColor=none;strokeColor=#5A6C86;dashed=1;verticalAlign=top;fontStyle=0;fontColor=#5A6C86;whiteSpace=wrap;html=1;" vertex="1" parent="1">
          <mxGeometry x="419" y="158" width="180" height="620" as="geometry" />
        </mxCell>
        <mxCell id="7jDUgzo4OTwtzhQPI63o-52" style="edgeStyle=orthogonalEdgeStyle;rounded=0;orthogonalLoop=1;jettySize=auto;html=1;" edge="1" parent="1" source="7jDUgzo4OTwtzhQPI63o-49" target="7jDUgzo4OTwtzhQPI63o-51">
          <mxGeometry relative="1" as="geometry" />
        </mxCell>
        <mxCell id="7jDUgzo4OTwtzhQPI63o-49" value="Amazon SNS" style="sketch=0;points=[[0,0,0],[0.25,0,0],[0.5,0,0],[0.75,0,0],[1,0,0],[0,1,0],[0.25,1,0],[0.5,1,0],[0.75,1,0],[1,1,0],[0,0.25,0],[0,0.5,0],[0,0.75,0],[1,0.25,0],[1,0.5,0],[1,0.75,0]];outlineConnect=0;fontColor=#232F3E;gradientColor=#FF4F8B;gradientDirection=north;fillColor=#BC1356;strokeColor=#ffffff;dashed=0;verticalLabelPosition=bottom;verticalAlign=top;align=center;html=1;fontSize=12;fontStyle=0;aspect=fixed;shape=mxgraph.aws4.resourceIcon;resIcon=mxgraph.aws4.sns;" vertex="1" parent="1">
          <mxGeometry x="1410" y="200" width="78" height="78" as="geometry" />
        </mxCell>
        <mxCell id="7jDUgzo4OTwtzhQPI63o-51" value="AWS Chatbot" style="sketch=0;points=[[0,0,0],[0.25,0,0],[0.5,0,0],[0.75,0,0],[1,0,0],[0,1,0],[0.25,1,0],[0.5,1,0],[0.75,1,0],[1,1,0],[0,0.25,0],[0,0.5,0],[0,0.75,0],[1,0.25,0],[1,0.5,0],[1,0.75,0]];points=[[0,0,0],[0.25,0,0],[0.5,0,0],[0.75,0,0],[1,0,0],[0,1,0],[0.25,1,0],[0.5,1,0],[0.75,1,0],[1,1,0],[0,0.25,0],[0,0.5,0],[0,0.75,0],[1,0.25,0],[1,0.5,0],[1,0.75,0]];outlineConnect=0;fontColor=#232F3E;gradientColor=#F34482;gradientDirection=north;fillColor=#BC1356;strokeColor=#ffffff;dashed=0;verticalLabelPosition=bottom;verticalAlign=top;align=center;html=1;fontSize=12;fontStyle=0;aspect=fixed;shape=mxgraph.aws4.resourceIcon;resIcon=mxgraph.aws4.chatbot;" vertex="1" parent="1">
          <mxGeometry x="1410" y="-110" width="78" height="78" as="geometry" />
        </mxCell>
        <mxCell id="7jDUgzo4OTwtzhQPI63o-53" value="" style="fillColor=none;strokeColor=#5A6C86;dashed=1;verticalAlign=top;fontStyle=0;fontColor=#5A6C86;whiteSpace=wrap;html=1;" vertex="1" parent="1">
          <mxGeometry x="180" y="90" width="1460" height="940" as="geometry" />
        </mxCell>
        <mxCell id="7jDUgzo4OTwtzhQPI63o-54" value="AWS Cloud" style="points=[[0,0],[0.25,0],[0.5,0],[0.75,0],[1,0],[1,0.25],[1,0.5],[1,0.75],[1,1],[0.75,1],[0.5,1],[0.25,1],[0,1],[0,0.75],[0,0.5],[0,0.25]];outlineConnect=0;gradientColor=none;html=1;whiteSpace=wrap;fontSize=12;fontStyle=0;container=1;pointerEvents=0;collapsible=0;recursiveResize=0;shape=mxgraph.aws4.group;grIcon=mxgraph.aws4.group_aws_cloud_alt;strokeColor=#232F3E;fillColor=none;verticalAlign=top;align=left;spacingLeft=30;fontColor=#232F3E;dashed=0;" vertex="1" parent="1">
          <mxGeometry x="120" y="-160" width="1620" height="1240" as="geometry" />
        </mxCell>
      </root>
    </mxGraphModel>
  </diagram>
</mxfile>
